<svg width="42" height="19" viewBox="0 0 42 19" fill="none" xmlns="http://www.w3.org/2000/svg">
<path fill-rule="evenodd" clip-rule="evenodd" d="M30.2822 2.08817L27.9322 7.76218C27.1661 9.61017 24.3942 8.46216 25.1602 6.61417L27.5102 0.940161C28.2762 -0.907831 31.0482 0.240179 30.2822 2.08817ZM40.8142 14.2442L35.1402 16.5942C33.2922 17.3602 32.1442 14.5882 33.9922 13.8222L39.6662 11.4722C41.5142 10.7062 42.6622 13.4782 40.8142 14.2442ZM6.61219 16.5962L0.938176 14.2462C-0.909846 13.4802 0.238164 10.7082 2.08619 11.4742L7.7602 13.8242C9.60816 14.5902 8.46015 17.3622 6.61219 16.5962ZM14.2382 0.938177L16.5882 6.61216C17.3542 8.46018 14.5822 9.60816 13.8162 7.76017L11.4662 2.08616C10.7002 0.238165 13.4722 -0.909845 14.2382 0.938177ZM11.0842 18.8822H30.6841C29.7576 14.3177 25.7221 10.8822 20.8842 10.8822C16.0463 10.8822 12.0107 14.3177 11.0842 18.8822Z" fill="#FFB300"/>
</svg>
